<svg width="29" height="30" viewBox="0 0 29 30" fill="none" xmlns="http://www.w3.org/2000/svg">
<path d="M6.02706 29.5961C5.82896 29.8016 5.58582 29.9354 5.32619 29.9818C5.06657 30.0282 4.80123 29.9853 4.56133 29.8581C4.32143 29.7309 4.11693 29.5247 3.97183 29.2637C3.82673 29.0026 3.74707 28.6976 3.74218 28.3845V24.6922C3.01031 24.6922 2.30842 24.3453 1.79091 23.7279C1.2734 23.1105 0.982666 22.2731 0.982666 21.3999V9.87687C0.982666 9.0037 1.2734 8.1663 1.79091 7.54887C2.30842 6.93145 3.01031 6.58458 3.74218 6.58458H18.9195C19.6514 6.58458 20.3533 6.93145 20.8708 7.54887C21.3883 8.1663 21.679 9.0037 21.679 9.87687V21.3999C21.679 22.2731 21.3883 23.1105 20.8708 23.7279C20.3533 24.3453 19.6514 24.6922 18.9195 24.6922H12.0249L6.02706 29.5961ZM7.19158 24.5045C7.3173 24.5037 7.44077 24.4646 7.55031 24.3909L10.7996 21.6946C11.0309 21.5027 11.3058 21.3999 11.5875 21.3999H17.5398C17.9057 21.3999 18.2566 21.2265 18.5154 20.9177C18.7742 20.609 18.9195 20.1903 18.9195 19.7537V11.523C18.9195 11.0864 18.7742 10.6677 18.5154 10.359C18.2566 10.0503 17.9057 9.87687 17.5398 9.87687H5.12194C4.75601 9.87687 4.40506 10.0503 4.1463 10.359C3.88755 10.6677 3.74218 11.0864 3.74218 11.523V19.7537C3.74218 20.6427 4.3341 21.3703 5.12194 21.3999C5.68764 21.4262 6.09743 21.5365 6.28646 21.7719C6.46306 21.9925 6.47272 22.3645 6.5017 23.0724C6.50584 23.1761 6.50584 23.3637 6.5017 23.6814C6.5017 23.8997 6.57438 24.1091 6.70376 24.2635C6.83314 24.4178 7.00861 24.5045 7.19158 24.5045ZM23.0588 16.4878C23.0544 16.6908 23.0544 16.8939 23.0588 17.0969V16.4878C23.0864 15.78 23.0974 15.4079 23.274 15.1873C23.4631 14.9519 23.8728 14.8416 24.4385 14.8153C25.2264 14.7857 25.8183 14.0581 25.8183 13.1692V4.93844C25.8183 4.50185 25.6729 4.08315 25.4142 3.77444C25.1554 3.46572 24.8045 3.29229 24.4385 3.29229H12.0207C11.6548 3.29229 11.3038 3.46572 11.0451 3.77444C10.7863 4.08315 10.641 4.50185 10.641 4.93844H7.88146V3.29229C7.88146 2.41912 8.17219 1.58171 8.6897 0.96429C9.20721 0.346865 9.9091 0 10.641 0L25.8183 0C26.5502 0 27.2521 0.346865 27.7696 0.96429C28.2871 1.58171 28.5778 2.41912 28.5778 3.29229V14.8153C28.5778 15.6885 28.2871 16.5259 27.7696 17.1433C27.2521 17.7607 26.5502 18.1076 25.8183 18.1076V21.7999C25.8134 22.1131 25.7338 22.4181 25.5887 22.6791C25.4436 22.9401 25.2391 23.1463 24.9992 23.2735C24.7593 23.4007 24.4939 23.4437 24.2343 23.3972C23.9747 23.3508 23.7315 23.217 23.5334 23.0115L23.0588 22.623V16.4894V16.4878Z" fill="#F2F3F3"/>
</svg>
