<svg width="31" height="32" viewBox="0 0 31 32" fill="none" xmlns="http://www.w3.org/2000/svg">
<path d="M12.9857 18.9981V29.3254C12.9857 30.5048 12.0484 31.5 10.8623 31.5H3.55762C2.37149 31.5 1.4342 30.5048 1.4342 29.3254V12.2189C1.4342 11.5696 1.71578 10.9565 2.21444 10.541L13.1076 1.45083L13.1078 1.4507C14.628 0.1831 16.8341 0.1831 18.3543 1.4507L18.3545 1.45083L29.249 10.5424C29.249 10.5424 29.249 10.5424 29.2491 10.5425L29.2494 10.5428L12.9857 18.9981ZM12.9857 18.9981H18.4779H12.9857ZM14.7729 3.5124L14.7734 3.51194C15.3275 3.04828 16.1354 3.04881 16.6906 3.51232L16.6907 3.5124L27.4059 12.4529L27.4045 28.8343H21.0999V18.4906C21.0999 17.3048 20.1563 16.3323 18.9764 16.3323H12.4842C11.3044 16.3323 10.3608 17.3048 10.3608 18.4906V28.8343H4.05762V12.4529L14.7729 3.5124Z" fill="#292E32" stroke="black"/>
</svg>
