<svg width="20" height="20" viewBox="0 0 20 20" fill="none" xmlns="http://www.w3.org/2000/svg">
<path d="M4.28571 4H5.64286H5.78571H7.14286H12.8571H14.2143H14.3571H15.7143H17.8571C18.0957 4 18.2778 4.08483 18.3845 4.17818C18.4882 4.269 18.5 4.34219 18.5 4.375V4.75H1.5V4.375C1.5 4.34219 1.51176 4.269 1.61555 4.17818C1.72224 4.08483 1.9043 4 2.14286 4H4.28571ZM1.5 9H18.5V18.125C18.5 18.1578 18.4882 18.231 18.3845 18.3218C18.2778 18.4152 18.0957 18.5 17.8571 18.5H2.14286C1.9043 18.5 1.72224 18.4152 1.61555 18.3218C1.51176 18.231 1.5 18.1578 1.5 18.125V9Z" fill="#111315" stroke="#A2A2A2" stroke-width="3"/>
</svg>
