<svg width="30" height="32" viewBox="0 0 30 32" fill="none" xmlns="http://www.w3.org/2000/svg">
<path d="M4.74304 9.4318V9.43182H4.74564C9.49088 9.43182 13.1515 9.41496 15.9808 9.40194C19.5129 9.38567 21.7493 9.37537 23.1827 9.41129C23.8268 9.42742 24.3022 9.45279 24.6568 9.49035C25.0143 9.52821 25.2335 9.57703 25.3738 9.63277C25.5043 9.68461 25.5589 9.73915 25.5961 9.79616C25.6343 9.85457 25.6594 9.92088 25.698 10.0275C25.6914 10.0358 25.6836 10.0453 25.6747 10.0559C25.5838 10.1647 25.4032 10.3624 25.0422 10.7523C24.9121 10.8928 24.7593 11.0575 24.5797 11.2511C23.7682 12.1257 22.4105 13.589 20.1406 16.0623C19.0727 17.2108 17.7219 17.9886 16.2586 18.3057C16.2038 17.9938 16.0639 17.7023 15.8512 17.4711C15.571 17.1664 15.1863 16.9909 14.7802 16.9909C14.3742 16.9909 13.9895 17.1664 13.7093 17.4711C13.4961 17.7029 13.356 17.9952 13.3015 18.308C11.8568 18.0143 10.8577 17.4373 9.58608 16.2423C8.70575 15.4149 7.70799 14.3046 6.35481 12.7987C5.63162 11.9939 4.80691 11.0762 3.84437 10.0283C3.92132 9.86572 4.03306 9.72741 4.16866 9.62499C4.33941 9.49602 4.54011 9.4297 4.74304 9.4318ZM15.8141 22.5804C16.0801 22.3108 16.2426 21.9494 16.278 21.5659C16.3476 21.543 16.4534 21.5188 16.6073 21.4866C16.6392 21.4799 16.6726 21.473 16.7074 21.4658C17.0316 21.3987 17.48 21.3059 18.0066 21.1369C19.1776 20.7611 20.7318 20.0105 22.2773 18.3234L25.8192 14.4729V26.9091C25.8192 27.2109 25.7087 27.4965 25.5178 27.7041C25.3275 27.9109 25.0742 28.0227 24.8148 28.0227H4.74564C4.48634 28.0227 4.23297 27.9109 4.0427 27.7041C3.85178 27.4965 3.74132 27.2109 3.74132 26.9091V14.4763C4.11784 14.8914 4.47677 15.2938 4.82307 15.6819C7.60097 18.7958 9.56634 20.9988 13.2835 21.5763C13.317 21.9175 13.4514 22.2423 13.6725 22.5001C13.9424 22.8148 14.3209 23.0048 14.7268 23.0203C15.1329 23.0357 15.5237 22.8748 15.8141 22.5804ZM24.8148 6.20455H21.3019V5.09091C21.3019 3.94606 20.8837 2.84432 20.1337 2.02895C19.3831 1.21288 18.3603 0.75 17.2889 0.75H12.2716C11.2002 0.75 10.1774 1.21288 9.42677 2.02895C8.67676 2.84432 8.25862 3.94606 8.25862 5.09091V6.20455H4.74564C3.67427 6.20455 2.65147 6.66742 1.90082 7.4835C1.15081 8.29887 0.732666 9.4006 0.732666 10.5455V26.9091C0.732666 28.0539 1.15081 29.1557 1.90082 29.9711C2.65147 30.7871 3.67427 31.25 4.74564 31.25H24.8148C25.8862 31.25 26.909 30.7871 27.6597 29.9711C28.4097 29.1557 28.8278 28.0539 28.8278 26.9091V10.5455C28.8278 9.4006 28.4097 8.29887 27.6597 7.4835C26.909 6.66742 25.8862 6.20455 24.8148 6.20455ZM11.2673 5.09091C11.2673 4.78913 11.3777 4.50347 11.5686 4.29592C11.7589 4.08907 12.0123 3.97727 12.2716 3.97727H17.2889C17.5482 3.97727 17.8016 4.08907 17.9918 4.29592C18.1828 4.50347 18.2932 4.78913 18.2932 5.09091V6.20455H11.2673V5.09091Z" fill="#D8DADA" stroke="white" stroke-width="0.5"/>
</svg>
