<svg width="44" height="77" viewBox="0 0 44 77" fill="none" xmlns="http://www.w3.org/2000/svg">
<path d="M0 14.2269C0 6.36959 5.30142 0 11.8411 0H32.1589C38.6986 0 44 6.36959 44 14.2269C44 19.2022 41.8744 23.5811 38.6547 26.1238C41.8744 28.6668 44 33.0455 44 38.0209C44 45.8782 38.6986 52.2478 32.1589 52.2478H31.9018C28.836 52.2478 26.0422 50.8479 23.9393 48.5511V61.6597C23.9393 69.6217 18.4993 76.0411 11.9049 76.0411C5.38156 76.0411 0 69.691 0 61.8142C0 56.8391 2.12544 52.4605 5.34486 49.9176C2.12544 47.3747 0 42.9959 0 38.0209C0 33.0455 2.12562 28.6668 5.34527 26.1238C2.12562 23.5811 0 19.2022 0 14.2269ZM20.0607 28.4541H11.8411C7.44354 28.4541 3.87866 32.7373 3.87866 38.0209C3.87866 43.284 7.41605 47.5545 11.7902 47.5875C11.8071 47.5873 11.8241 47.5873 11.8411 47.5873H20.0607V28.4541ZM23.9393 38.0209C23.9393 43.3044 27.5042 47.5876 31.9018 47.5876H32.1589C36.5565 47.5876 40.1213 43.3044 40.1213 38.0209C40.1213 32.7373 36.5565 28.4541 32.1589 28.4541H31.9018C27.5042 28.4541 23.9393 32.7373 23.9393 38.0209ZM11.8411 52.2478C11.8241 52.2478 11.8071 52.2477 11.7902 52.2477C7.41605 52.2805 3.87866 56.551 3.87866 61.8142C3.87866 67.0784 7.49116 71.3809 11.9049 71.3809C16.3898 71.3809 20.0607 67.0092 20.0607 61.6597V52.2478H11.8411ZM11.8411 4.66016C7.44354 4.66016 3.87866 8.94334 3.87866 14.2269C3.87866 19.5105 7.44354 23.7936 11.8411 23.7936H20.0607V4.66016H11.8411ZM23.9393 23.7936H32.1589C36.5565 23.7936 40.1213 19.5105 40.1213 14.2269C40.1213 8.94334 36.5565 4.66016 32.1589 4.66016H23.9393V23.7936Z" fill="black"/>
</svg>
