<svg width="29" height="30" viewBox="0 0 29 30" fill="none" xmlns="http://www.w3.org/2000/svg">
<path d="M18.2292 15.0947L17.8325 15.5578L18.3643 15.8561C19.4888 16.4868 20.4571 17.4122 21.18 18.554C21.9028 19.6956 22.3568 21.0166 22.499 22.3998C22.5259 22.6743 22.451 22.9444 22.2993 23.1505C22.1547 23.3471 21.9553 23.4665 21.7473 23.5H21.6306H21.6127L21.5948 23.5013C21.382 23.5165 21.165 23.4429 20.9896 23.2827C20.8128 23.1213 20.6923 22.8837 20.6656 22.6154L20.6656 22.6154L20.6649 22.6087C20.4877 21.0453 19.7901 19.5982 18.6932 18.5436C17.5951 17.4878 16.172 16.8985 14.6904 16.8985C13.2088 16.8985 11.7856 17.4878 10.6876 18.5436C9.59066 19.5982 8.89306 21.0453 8.71593 22.6087L8.71589 22.6087L8.71529 22.6147C8.68713 22.893 8.55915 23.138 8.37277 23.3004C8.18804 23.4615 7.96082 23.5299 7.74059 23.5035C7.51956 23.4771 7.30568 23.355 7.15243 23.1472C6.99865 22.9387 6.9229 22.6652 6.95049 22.3874C7.10419 20.9974 7.5729 19.6733 8.31172 18.534C9.05086 17.3942 10.036 16.4765 11.1755 15.8597L11.72 15.565L11.3172 15.0947C10.5239 14.1686 10.0715 12.947 10.0577 11.6674C10.0583 10.2843 10.5644 8.96557 11.4533 7.9992C12.3414 7.03363 13.5367 6.5 14.7732 6.5C16.0097 6.5 17.2049 7.03363 18.0931 7.9992C18.982 8.96557 19.488 10.2843 19.4887 11.6674C19.4748 12.947 19.0225 14.1686 18.2292 15.0947ZM13.0735 14.2946C13.5602 14.6481 14.1374 14.84 14.7318 14.84C15.5299 14.84 16.2859 14.495 16.8364 13.8965C17.3856 13.2994 17.6878 12.4979 17.6878 11.67C17.6878 11.0519 17.5193 10.4447 17.1998 9.92482C16.8801 9.40465 16.4215 8.99256 15.8769 8.74733C15.3317 8.50181 14.729 8.43674 14.147 8.5626C13.5654 8.68836 13.0374 8.99749 12.6272 9.44353C12.2173 9.88913 11.9422 10.452 11.8312 11.0591C11.7201 11.6661 11.7768 12.2957 11.9955 12.8698C12.2143 13.444 12.5873 13.9414 13.0735 14.2946ZM5.07348 0.5H24.3901C25.3412 0.5 26.2627 0.910361 26.949 1.65652C27.6366 2.40407 28.0294 3.42628 28.0294 4.5V25.5C28.0294 26.5737 27.6366 27.5959 26.949 28.3435C26.2627 29.0896 25.3412 29.5 24.3901 29.5H5.07348C4.1224 29.5 3.20091 29.0896 2.51456 28.3435C1.82693 27.5959 1.4342 26.5737 1.4342 25.5V4.5C1.4342 3.42628 1.82693 2.40407 2.51456 1.65652C3.20091 0.910361 4.1224 0.5 5.07348 0.5ZM25.7337 26.8992C26.0811 26.5215 26.2698 26.0176 26.2698 25.5V4.5C26.2698 3.98242 26.0811 3.47851 25.7337 3.10084C25.385 2.72178 24.9028 2.5 24.3901 2.5H5.07348C4.56081 2.5 4.07852 2.72178 3.72985 3.10084C3.38246 3.47851 3.19372 3.98242 3.19372 4.5V25.5C3.19372 26.0176 3.38246 26.5215 3.72985 26.8992C4.07852 27.2782 4.56081 27.5 5.07348 27.5H24.3901C24.9028 27.5 25.385 27.2782 25.7337 26.8992Z" fill="#F2F3F3" stroke="white"/>
</svg>
